<?xml version="1.0" encoding="UTF-8" standalone="no"?>
<svg width="50px" height="50px" viewBox="0 0 50 50" version="1.1" xmlns="http://www.w3.org/2000/svg" xmlns:xlink="http://www.w3.org/1999/xlink">
    <!-- Generator: Sketch 43.1 (39012) - http://www.bohemiancoding.com/sketch -->
    <title>Artboard</title>
    <desc>Created with Sketch.</desc>
    <defs></defs>
    <g id="Page-1" stroke="none" stroke-width="1" fill="none" fill-rule="evenodd">
        <g id="Artboard" fill="#FFFFFF">
            <path d="M25,31.5 C24.9999874,31.5000253 25.999981,29.5 29,29.5 C32,29.5 33.5,33 39,33 C47.4263147,33 47,19 47,19 C47,19 53.0386653,42 36,42 C28.3286305,42 25,37.5 25,37.5 L25,31.5 C24.0412142,29.5824284 25,31.5 25,31.5 L25,37.5 C25,37.5 21.6713695,42 14,42 C-3.03866535,42 3,19 3,19 C3,19 2.57368528,33 11,33 C16.5,33 18,29.5 21,29.5 C21.0624717,29.5 21.1240762,29.5008673 21.1848224,29.5025657 Z M22,16 C22,16 23,25.5 14,25.5 C5,25.5 6.5,16 6.5,16 L4.5,16 L4.5,14.5 C4.5,14.5 8.5,12 15,12 C21.5,12 22,15 22,15 C22,15 23,14 25,14 C25,14.5 25,14.5 25,15 C23,15 22,16 22,16 Z M28,16 C28,16 27,15 25,15 C25,14.5 25,14.5 25,14 C27,14 28,15 28,15 C28,15 28.5,12 35,12 C41.5,12 45.5,14.5 45.5,14.5 L45.5,16 L43.5,16 C43.5,16 45,25.5 36,25.5 C27,25.5 28,16 28,16 Z" id="Combined-Shape"></path>
        </g>
    </g>
</svg>